<?xml version="1.0" standalone="no"?>
<!DOCTYPE svg PUBLIC "-//W3C//DTD SVG 20010904//EN"
 "http://www.w3.org/TR/2001/REC-SVG-20010904/DTD/svg10.dtd">
<svg version="1.0" xmlns="http://www.w3.org/2000/svg"
 width="670.000000pt" height="670.000000pt" viewBox="0 0 670.000000 670.000000"
 preserveAspectRatio="xMidYMid meet">
<metadata>
Created by potrace 1.14, written by Peter Selinger 2001-2017
</metadata>
<g transform="translate(0.000000,670.000000) scale(0.100000,-0.100000)"
fill="#000000" stroke="none">
<path d="M3393 5972 c-12 -10 -33 -53 -48 -97 -15 -44 -38 -90 -51 -102 -13
-12 -63 -34 -111 -49 -101 -32 -145 -67 -136 -105 9 -36 22 -48 67 -60 104
-29 163 -53 183 -76 12 -14 34 -57 49 -96 30 -78 47 -101 82 -112 38 -11 93
64 106 145 1 3 7 20 15 38 16 39 34 48 168 92 95 31 103 35 109 63 11 50 -10
73 -90 97 -144 44 -179 66 -201 129 -16 45 -15 43 -15 70 0 11 -12 33 -26 50
-30 36 -70 41 -101 13z"/>
<path d="M1907 5119 c-48 -37 -34 -63 136 -263 23 -27 44 -52 47 -57 11 -17
55 -26 76 -17 47 22 50 81 7 125 -10 10 -52 59 -93 108 -114 138 -124 143
-173 104z"/>
<path d="M4858 5068 c-172 -192 -188 -220 -159 -273 26 -47 52 -43 97 12 21
26 70 84 107 128 38 44 82 97 98 117 l30 37 -23 20 c-13 13 -35 21 -58 21 -31
0 -43 -8 -92 -62z"/>
<path d="M4099 5086 c-2 -2 -31 -6 -64 -9 -105 -10 -165 -29 -277 -90 -69 -37
-198 -138 -250 -195 -19 -22 -40 -42 -46 -46 -5 -3 -38 21 -73 54 -69 66 -225
173 -304 209 -27 13 -59 27 -70 32 -48 21 -146 36 -227 33 -69 -2 -99 -8 -145
-29 -54 -24 -153 -108 -153 -128 0 -5 -9 -22 -20 -37 -43 -61 -67 -221 -46
-315 3 -16 8 -39 10 -50 7 -35 37 -98 68 -143 54 -78 119 -133 219 -185 51
-27 124 -55 124 -47 0 1 13 -4 30 -10 29 -11 63 -17 140 -24 22 -3 44 -5 48
-5 12 -1 -13 -43 -44 -73 -25 -24 -97 -68 -124 -74 -5 -2 -29 -10 -52 -18 -88
-32 -246 -38 -413 -16 -47 6 -103 14 -125 16 -22 3 -45 6 -51 8 -20 7 -92 -32
-110 -60 -23 -34 -23 -94 -1 -127 45 -69 213 -142 402 -175 22 -4 96 -7 165
-7 107 1 141 4 205 19 6 2 24 8 40 15 98 42 130 57 139 66 6 6 32 25 58 43 41
28 47 30 52 15 2 -10 4 -114 3 -232 -2 -240 5 -218 -87 -246 -120 -37 -312
-146 -386 -221 -119 -120 -218 -327 -252 -524 -8 -49 -7 -225 2 -285 15 -96
95 -313 118 -323 5 -2 8 -9 8 -14 0 -34 146 -193 230 -251 25 -17 47 -33 50
-37 13 -16 172 -90 234 -109 116 -36 176 -45 286 -44 112 2 164 9 255 37 6 2
24 7 40 11 17 4 63 25 103 46 116 61 184 115 267 214 28 33 56 66 63 73 62 66
140 228 162 337 37 177 24 392 -31 545 -36 96 -103 207 -171 281 -47 51 -152
139 -166 139 -7 0 -12 3 -12 8 0 4 -10 12 -23 18 -12 7 -51 27 -87 46 -36 19
-82 41 -102 47 -21 7 -39 16 -39 19 -1 4 -2 127 -3 275 -3 285 -2 285 45 248
34 -26 164 -94 229 -119 74 -29 207 -64 251 -67 20 -1 40 -4 45 -6 12 -7 159
-3 214 5 81 11 163 36 235 71 130 64 175 127 140 194 -8 16 -24 32 -35 36 -11
3 -88 8 -172 10 -212 4 -272 10 -408 40 -131 28 -326 104 -345 135 -7 12 -7
12 100 35 82 17 241 87 285 125 64 54 94 87 130 141 22 32 40 60 40 64 0 3 9
24 20 48 37 80 45 176 25 282 -27 139 -168 273 -306 290 -23 3 -44 7 -49 10
-4 2 -9 3 -11 1z m-1184 -350 c76 -17 209 -131 304 -262 26 -35 29 -43 17 -59
-10 -14 -26 -18 -72 -17 -32 1 -70 4 -84 7 -14 3 -36 8 -49 11 -14 3 -28 7
-33 10 -4 3 -16 7 -25 9 -72 15 -201 103 -229 156 -34 66 -21 133 29 154 26
11 67 8 142 -9z m1212 2 c21 -10 33 -31 39 -67 10 -54 -74 -150 -179 -202
-103 -53 -288 -82 -319 -51 -26 26 92 180 199 260 94 71 194 94 260 60z m-590
-1934 c37 -13 74 -31 83 -39 9 -8 21 -15 27 -15 5 0 33 -24 61 -53 103 -110
148 -258 121 -402 -22 -117 -108 -239 -209 -297 -187 -108 -434 -57 -565 117
-72 96 -93 163 -90 281 1 49 5 99 8 112 16 60 60 135 109 184 71 71 84 80 148
105 79 31 78 31 163 31 58 0 95 -6 144 -24z"/>
<path d="M1772 4720 c-27 -25 -29 -71 -4 -92 43 -39 337 -228 359 -233 17 -3
32 4 49 20 51 51 33 75 -144 194 -213 142 -222 146 -260 111z"/>
<path d="M4898 4620 c-164 -108 -188 -129 -188 -168 0 -22 30 -52 57 -56 25
-4 35 1 215 121 165 109 182 128 157 175 -31 59 -52 53 -241 -72z"/>
<path d="M959 4563 c-12 -27 -26 -59 -33 -72 -6 -14 -41 -39 -85 -62 -41 -21
-77 -43 -81 -50 -17 -26 5 -51 70 -84 75 -38 105 -69 120 -126 10 -38 30 -56
60 -55 8 1 29 27 47 59 39 71 60 88 140 123 87 38 94 89 15 120 -101 40 -124
62 -151 145 -11 35 -31 48 -69 49 -7 0 -22 -21 -33 -47z"/>
<path d="M6215 4571 c-22 -9 -35 -30 -63 -104 -17 -46 -23 -51 -103 -90 -77
-39 -84 -44 -82 -70 3 -33 17 -48 63 -67 78 -31 95 -46 128 -110 18 -36 40
-68 48 -73 32 -18 62 1 90 61 34 70 53 88 130 127 76 39 86 51 68 86 -9 19
-29 32 -63 44 -61 20 -101 63 -127 135 -13 35 -26 55 -42 61 -13 5 -24 9 -25
8 -1 0 -11 -4 -22 -8z"/>
<path d="M5617 4334 c-1 -1 -31 -4 -67 -8 -174 -16 -380 -69 -556 -140 -55
-23 -71 -53 -50 -94 22 -43 46 -47 124 -22 37 12 72 23 77 25 6 1 17 5 25 8
24 10 301 76 345 82 22 4 47 8 55 10 8 2 35 7 60 10 59 8 87 22 94 51 7 28 -9
73 -26 76 -21 2 -79 4 -81 2z"/>
<path d="M1390 4308 c-41 -44 -18 -103 47 -119 21 -5 47 -12 58 -15 11 -3 31
-7 45 -10 14 -3 33 -7 42 -10 9 -3 25 -7 35 -9 10 -2 56 -13 103 -25 47 -11
92 -22 100 -24 8 -2 33 -9 55 -14 84 -23 96 -22 121 3 32 32 32 79 0 100 -21
14 -117 42 -203 61 -12 2 -94 22 -182 44 -88 22 -169 40 -180 40 -11 0 -29
-10 -41 -22z"/>
<path d="M935 3902 c-1 -2 -76 -4 -165 -6 -156 -2 -163 -3 -181 -25 -38 -46
-10 -110 49 -111 36 -1 270 2 467 5 88 1 255 4 370 5 116 2 220 7 232 13 26
12 43 54 33 82 -17 46 -17 46 -420 43 -210 -2 -383 -4 -385 -6z"/>
<path d="M5355 3901 c-2 -2 -28 -3 -57 -4 -71 0 -96 -13 -104 -52 -6 -35 8
-74 29 -77 7 -1 176 -2 377 -3 201 -1 439 -5 530 -9 91 -4 171 -3 178 2 20 13
22 76 3 101 -19 24 -34 27 -216 37 -137 7 -734 12 -740 5z"/>
<path d="M178 3408 c-67 -8 -102 -25 -141 -66 -63 -66 -49 -132 94 -440 22
-46 39 -85 39 -87 0 -2 32 -70 71 -152 39 -81 85 -177 102 -213 16 -36 61
-130 99 -210 38 -80 73 -154 78 -165 5 -11 24 -54 43 -95 19 -41 60 -133 92
-205 69 -153 107 -221 144 -253 59 -51 220 -70 317 -37 109 37 145 92 159 245
3 25 7 64 9 87 3 22 7 70 10 105 4 34 8 77 10 93 2 17 7 57 10 90 11 102 18
137 26 128 5 -4 29 -73 55 -153 75 -230 164 -471 191 -517 13 -23 41 -52 61
-65 34 -21 50 -23 153 -23 100 0 121 3 157 22 72 39 116 114 148 249 2 11 21
80 40 154 20 74 38 146 41 160 3 14 8 34 11 45 4 11 8 25 9 30 1 6 6 28 12 50
6 22 13 51 16 65 2 14 19 77 36 140 37 130 65 232 103 370 15 52 43 151 62
220 20 69 38 136 41 150 3 14 10 41 15 60 31 104 15 180 -43 204 -47 20 -268
22 -305 2 -30 -15 -64 -51 -67 -70 -1 -6 -5 -16 -9 -23 -6 -9 -79 -269 -92
-323 -1 -8 -15 -58 -30 -110 -14 -52 -29 -108 -31 -123 -3 -16 -12 -46 -19
-68 -8 -21 -12 -39 -9 -39 2 0 0 -8 -5 -18 -6 -11 -12 -31 -15 -46 -9 -49 -17
-66 -38 -77 -27 -15 -39 -1 -73 81 -14 36 -32 79 -39 95 -8 17 -48 118 -91
225 -42 107 -83 209 -90 225 -7 17 -29 71 -48 121 -45 116 -53 129 -97 149
-54 25 -269 24 -330 -1 -43 -17 -89 -57 -91 -79 0 -5 -3 -19 -5 -30 -6 -25
-13 -244 -18 -539 -5 -254 -8 -270 -63 -250 -16 5 -27 14 -27 19 1 6 -5 19
-12 30 -8 11 -14 27 -14 37 0 10 -4 18 -10 18 -5 0 -10 6 -10 14 0 8 -7 27
-15 43 -8 15 -24 51 -36 78 -12 28 -36 82 -54 120 -64 140 -75 165 -75 175 0
5 -4 10 -10 10 -5 0 -10 8 -10 18 0 10 -4 22 -9 28 -6 5 -28 56 -50 113 -49
125 -84 179 -129 198 -39 16 -163 22 -244 11z"/>
<path d="M4547 3408 c-59 -8 -97 -29 -126 -71 -20 -28 -22 -122 -5 -252 6 -55
15 -127 19 -160 3 -33 8 -73 11 -90 2 -16 6 -55 9 -85 2 -30 5 -55 5 -55 1 0
8 -59 15 -135 3 -30 7 -73 10 -95 3 -22 7 -67 10 -100 5 -61 11 -132 19 -220
7 -76 16 -184 21 -245 25 -347 28 -364 73 -413 34 -36 86 -49 197 -50 138 -1
174 18 241 123 42 66 49 84 125 313 38 115 73 216 78 225 8 14 10 13 15 -8 3
-14 7 -43 10 -65 3 -22 8 -50 10 -63 5 -21 7 -53 22 -252 13 -188 30 -223 125
-251 60 -17 214 -12 263 9 84 38 97 56 254 362 60 118 135 259 166 314 31 54
56 101 56 103 0 3 9 18 21 34 11 16 17 29 12 29 -4 0 -3 4 2 8 6 4 17 21 26
37 19 34 66 121 108 198 43 79 65 121 66 127 0 3 4 11 8 18 5 7 48 90 97 185
48 94 108 202 134 240 53 79 65 125 45 181 -28 79 -104 106 -305 106 -130 0
-174 -10 -206 -46 -18 -21 -180 -338 -272 -534 -33 -69 -80 -168 -105 -220
-25 -52 -45 -97 -44 -100 0 -3 -8 -14 -18 -24 -19 -19 -19 -19 -21 20 -1 46
-3 66 -12 159 -8 85 -15 172 -21 245 -2 30 -6 84 -10 120 -3 36 -7 97 -9 135
-7 122 -16 153 -52 189 -45 45 -101 57 -243 55 -151 -2 -187 -17 -222 -94 -18
-40 -19 -107 -4 -305 7 -89 -21 -229 -82 -414 -34 -104 -62 -172 -63 -151 0 6
-5 44 -10 85 -6 41 -13 98 -16 125 -5 47 -12 107 -19 165 -2 14 -6 61 -10 105
-3 44 -8 96 -10 115 -2 19 -7 64 -10 100 -3 36 -8 87 -11 115 -10 109 -68 151
-210 154 -48 1 -90 3 -93 5 -3 1 -32 -1 -64 -6z"/>
<path d="M2347 1213 c-139 -52 -199 -186 -151 -339 36 -115 145 -182 278 -172
90 8 166 51 188 108 9 23 12 35 22 93 6 33 -20 87 -41 88 -53 3 -195 -1 -203
-6 -21 -13 9 -74 40 -81 69 -14 73 -29 17 -57 -46 -23 -86 -16 -132 24 -109
96 -31 246 107 209 75 -20 92 -20 115 2 42 39 29 89 -30 120 -57 29 -149 33
-210 11z"/>
<path d="M3229 1213 c-47 -20 -54 -51 -52 -239 1 -93 2 -181 2 -196 1 -33 36
-59 81 -60 43 -1 59 19 64 79 2 29 7 57 11 62 4 7 75 11 198 11 224 0 237 4
237 71 0 60 -24 66 -248 65 -101 -1 -186 2 -188 6 -11 18 -12 48 -1 55 6 3
121 8 256 9 145 1 257 7 274 13 24 9 27 16 27 54 0 80 4 79 -336 81 -215 1
-304 -2 -325 -11z"/>
<path d="M4081 1216 c-12 -5 -22 -14 -22 -20 -1 -6 -3 -24 -5 -39 -2 -21 4
-36 22 -54 22 -22 32 -25 70 -20 27 3 47 0 52 -7 4 -6 8 -80 8 -165 l1 -155
27 -21 c33 -26 64 -22 89 11 16 21 18 45 18 179 l-1 155 38 1 c20 1 44 3 52 4
8 1 23 3 32 4 47 4 66 82 27 117 -18 16 -39 18 -204 19 -101 0 -193 -4 -204
-9z"/>
<path d="M2923 1208 c-12 -6 -24 -20 -27 -32 -3 -11 -6 -109 -6 -217 0 -173 2
-199 18 -217 27 -32 81 -33 110 -2 18 19 19 38 18 229 -1 182 -3 211 -18 228
-20 21 -63 27 -95 11z"/>
<path d="M956 1065 c-32 -27 -37 -47 -19 -83 16 -33 38 -42 96 -39 20 1 37 -1
37 -5 0 -3 13 -3 29 2 15 4 34 4 42 0 7 -5 17 -6 23 -3 9 6 72 6 111 -1 11 -1
34 0 52 5 18 4 35 3 38 -1 3 -4 20 -4 39 0 19 4 37 6 39 3 7 -7 107 -9 107 -2
0 3 17 3 38 -1 50 -8 122 6 138 27 28 38 3 111 -38 114 -7 0 -170 1 -361 2
-335 2 -349 1 -371 -18z"/>
<path d="M4811 1078 c-45 -16 -55 -86 -16 -116 19 -15 40 -20 83 -20 31 0 62
-1 67 -2 6 -1 15 -2 20 -1 8 2 163 2 310 0 6 0 24 0 40 1 17 0 51 -1 78 -2 26
-2 47 0 47 3 0 3 13 4 29 1 22 -3 33 2 49 23 12 15 20 37 18 49 -3 11 -5 26
-5 33 -2 33 -44 37 -373 38 -181 0 -337 -3 -347 -7z"/>
</g>
</svg>
