<svg viewBox="0.00 0.00 336.00 266.00" version="1.1" xmlns="http://www.w3.org/2000/svg">
<path d="M 161.18 23.34
  Q 158.47 22.68 154.20 21.20
  A 1.23 1.23 0.0 0 1 153.49 20.56
  C 150.25 13.54 163.22 14.53 166.11 10.66
  C 168.38 7.63 167.77 0.45 172.66 0.37
  C 174.85 0.33 176.87 3.19 176.92 4.98
  C 177.18 16.63 192.33 11.59 192.25 18.51
  Q 192.22 20.54 190.23 21.18
  Q 188.04 21.89 181.76 23.94
  C 179.33 24.73 178.30 25.60 177.63 28.22
  C 176.89 31.12 175.70 36.15 172.35 36.18
  C 169.44 36.20 168.30 31.35 167.46 29.01
  C 166.23 25.54 164.61 24.18 161.18 23.34
  Z" fill="#ffffff"></path>
<rect rx="3.16" height="21.58" width="6.50" transform="translate(102.84,52.01) rotate(-39.9)" y="-10.79" x="-3.25" fill="#ffffff"></rect>
<path d="M 238.73 61.62
  A 1.35 1.35 0.0 0 1 236.83 61.78
  L 236.72 61.69
  A 4.83 4.61 -49.8 0 1 236.31 55.03
  L 244.71 45.10
  A 4.83 4.61 -49.8 0 1 251.34 44.38
  L 251.45 44.47
  A 1.35 1.35 0.0 0 1 251.61 46.38
  L 238.73 61.62
  Z" fill="#ffffff"></path>
<path d="M 184.89 109.34
  A 0.64 0.64 0.0 0 0 183.87 109.85
  L 183.92 136.04
  Q 183.92 136.58 184.42 136.77
  C 204.37 144.32 216.91 158.70 216.83 181.00
  C 216.78 192.41 213.73 201.89 206.28 210.04
  C 204.67 211.80 203.26 213.91 201.68 215.43
  C 182.76 233.72 153.15 230.78 135.80 211.97
  Q 131.37 207.18 128.57 200.74
  Q 118.34 177.23 132.55 154.23
  C 138.29 144.94 150.42 138.55 160.65 135.97
  A 0.75 0.73 83.0 0 0 161.20 135.25
  L 161.03 112.98
  A 0.50 0.50 0.0 0 0 160.20 112.60
  Q 147.95 123.01 131.51 121.32
  C 125.43 120.69 107.98 117.16 106.89 109.77
  C 106.43 106.64 108.70 103.80 111.56 103.01
  Q 113.20 102.56 116.95 103.19
  Q 124.67 104.49 132.51 104.71
  C 138.93 104.89 150.42 102.13 153.85 95.86
  A 0.77 0.77 0.0 0 0 153.19 94.72
  C 136.08 94.32 119.94 83.07 121.49 64.52
  C 122.21 56.06 128.12 47.53 137.01 46.34
  Q 147.60 44.93 157.56 50.71
  Q 167.01 56.20 173.16 62.81
  Q 173.54 63.22 173.90 62.79
  C 181.87 53.35 194.08 45.12 206.57 45.87
  C 221.69 46.79 228.47 63.00 222.41 75.70
  C 219.73 81.33 216.22 85.77 210.82 89.02
  Q 203.82 93.23 195.51 94.41
  Q 194.72 94.52 194.28 94.71
  A 0.68 0.67 47.9 0 0 194.22 95.92
  C 207.20 103.15 221.49 104.52 236.07 104.23
  C 237.45 104.20 238.94 104.52 240.32 104.70
  A 1.25 1.23 71.0 0 1 241.07 105.07
  C 246.51 110.52 236.93 115.60 232.60 117.32
  C 216.97 123.52 197.99 118.97 184.89 109.34
  Z
  M 136.99 65.29
  C 134.81 75.15 155.42 81.79 161.93 79.71
  A 1.45 1.45 0.0 0 0 162.66 77.47
  C 159.00 72.43 153.46 65.93 147.70 63.54
  C 144.47 62.20 137.97 60.81 136.99 65.29
  Z
  M 184.53 79.39
  C 192.10 80.94 204.31 76.23 208.07 69.74
  Q 209.56 67.16 208.80 65.03
  C 207.01 60.01 198.51 62.71 195.67 64.66
  Q 188.05 69.87 183.81 77.86
  A 1.06 1.05 -70.3 0 0 184.53 79.39
  Z
  M 178.4176 201.6570
  A 22.37 21.94 69.6 0 0 191.1840 173.0423
  A 22.37 21.94 69.6 0 0 162.8224 159.7230
  A 22.37 21.94 69.6 0 0 150.0560 188.3377
  A 22.37 21.94 69.6 0 0 178.4176 201.6570
  Z" fill="#ffffff"></path>
<rect rx="3.25" height="6.68" width="25.78" transform="translate(99.35,71.58) rotate(33.6)" y="-3.34" x="-12.89" fill="#ffffff"></rect>
<rect rx="3.21" height="6.62" width="24.96" transform="translate(247.21,71.83) rotate(-33.6)" y="-3.31" x="-12.48" fill="#ffffff"></rect>
<path d="M 60.75 78.83
  C 62.83 79.33 64.83 81.02 63.43 83.53
  Q 63.20 83.93 62.79 84.11
  C 57.98 86.13 55.55 86.60 53.26 91.74
  C 52.35 93.80 51.04 95.27 48.88 93.51
  A 1.20 1.16 -76.5 0 1 48.47 92.81
  C 47.21 85.87 44.12 86.66 39.14 83.68
  Q 38.70 83.42 38.59 82.94
  C 37.45 78.03 46.31 79.16 47.50 74.40
  Q 48.10 72.04 49.40 70.00
  A 1.16 1.16 0.0 0 1 50.23 69.47
  C 52.31 69.20 53.51 70.29 54.01 72.37
  Q 55.24 77.50 60.75 78.83
  Z" fill="#ffffff"></path>
<path d="M 306.95 90.42
  C 304.44 87.39 299.01 88.67 298.93 84.11
  Q 298.92 83.64 299.21 83.28
  C 300.55 81.58 305.22 80.35 307.13 79.23
  A 1.32 1.30 -6.9 0 0 307.73 78.48
  C 308.87 74.93 310.31 69.12 314.65 71.64
  Q 315.06 71.88 315.21 72.33
  C 316.72 76.64 317.85 79.93 322.21 81.14
  C 323.80 81.58 325.11 82.16 325.76 83.47
  A 2.06 2.06 0.0 0 1 324.75 86.27
  Q 321.43 87.74 318.54 89.55
  C 315.85 91.24 316.30 94.59 314.10 96.64
  C 312.48 98.15 310.30 97.37 309.69 95.45
  Q 308.79 92.64 306.95 90.42
  Z" fill="#ffffff"></path>
<path d="M 251.53 97.25
  A 2.80 2.80 0.0 0 1 248.23 96.05
  L 247.78 95.31
  A 2.86 2.85 62.8 0 1 249.09 91.21
  Q 266.00 83.98 284.39 83.02
  A 2.53 2.52 83.8 0 1 287.01 85.13
  L 287.10 85.68
  A 3.16 3.15 -8.7 0 1 284.42 89.32
  Q 267.59 91.69 251.53 97.25
  Z" fill="#ffffff"></path>
<rect rx="3.40" height="6.98" width="33.36" transform="translate(85.40,90.03) rotate(13.8)" y="-3.49" x="-16.68" fill="#ffffff"></rect>
<rect rx="3.31" height="6.90" width="58.72" transform="translate(58.50,108.18) rotate(-0.9)" y="-3.45" x="-29.36" fill="#ffffff"></rect>
<path d="M 263.55 111.96
  A 3.15 3.15 0.0 0 1 260.30 108.51
  L 260.37 107.69
  A 2.85 2.84 -88.6 0 1 263.06 105.12
  Q 288.43 103.90 313.74 105.67
  Q 316.97 105.89 317.03 109.13
  L 317.05 110.03
  A 2.44 2.44 0.0 0 1 314.47 112.52
  Q 289.01 111.05 263.55 111.96
  Z" fill="#ffffff"></path>
<path d="M 66.97 189.28
  Q 65.62 200.50 64.50 212.75
  Q 63.93 219.07 62.49 221.50
  C 58.94 227.51 46.55 227.98 41.24 224.41
  Q 38.96 222.88 37.06 219.04
  C 32.24 209.29 27.79 198.30 23.49 189.43
  Q 7.10 155.58 1.67 142.25
  Q -1.40 134.72 4.45 131.00
  C 8.07 128.70 16.23 129.18 19.75 129.47
  C 25.83 129.97 27.26 138.62 29.32 142.99
  Q 36.13 157.46 42.54 172.11
  C 43.19 173.58 43.64 175.32 45.47 175.44
  Q 47.69 175.59 47.73 173.00
  Q 48.16 145.64 48.61 136.99
  C 49.13 127.23 61.28 129.35 67.54 129.49
  C 69.89 129.54 72.36 130.87 73.15 132.91
  Q 81.22 153.65 89.79 174.32
  A 1.65 1.64 86.3 0 0 90.89 175.29
  C 92.16 175.63 93.08 174.72 93.40 173.52
  Q 98.02 156.07 102.79 138.67
  C 103.97 134.37 105.30 129.32 110.74 129.44
  C 118.75 129.61 128.95 126.98 125.38 140.01
  Q 120.21 158.83 114.94 177.63
  C 111.53 189.80 108.28 204.83 104.23 218.27
  C 102.46 224.14 97.50 226.42 91.82 226.52
  C 85.58 226.62 81.20 226.04 78.72 219.53
  Q 72.97 204.44 68.21 189.16
  Q 67.32 186.31 66.97 189.28
  Z" fill="#ffffff"></path>
<path d="M 251.23 177.64
  Q 256.40 164.92 258.05 153.10
  C 259.04 146.04 252.36 129.55 266.15 129.49
  C 270.39 129.47 276.52 128.85 279.89 130.82
  Q 283.40 132.86 283.70 137.26
  Q 285.01 156.69 286.91 176.09
  A 0.40 0.40 0.0 0 0 287.68 176.20
  Q 288.56 174.04 291.30 168.50
  Q 295.35 160.27 297.74 154.95
  C 301.30 147.02 304.92 140.57 308.55 133.34
  Q 310.52 129.42 315.72 129.42
  C 322.39 129.42 333.15 128.32 335.32 134.51
  C 337.31 140.20 332.36 143.84 330.05 148.31
  Q 326.70 154.80 323.41 161.31
  Q 316.46 175.04 308.84 188.40
  Q 302.62 199.32 296.96 210.54
  C 293.79 216.82 291.00 224.63 285.26 226.79
  C 282.40 227.87 275.23 227.70 272.65 227.13
  C 267.94 226.10 266.51 222.91 266.30 218.15
  Q 265.78 206.38 263.93 194.99
  A 0.44 0.44 0.0 0 0 263.07 194.92
  Q 259.67 205.23 256.28 215.45
  C 254.97 219.41 252.78 222.58 250.41 225.67
  C 247.88 228.98 239.61 228.18 236.00 227.82
  C 229.74 227.21 228.73 222.33 228.33 216.58
  Q 225.74 179.82 221.24 143.24
  C 220.67 138.64 219.64 133.15 224.58 130.37
  C 227.45 128.75 233.63 129.44 237.04 129.45
  C 242.44 129.48 246.02 131.45 246.48 137.00
  Q 248.38 160.20 250.75 177.58
  Q 250.88 178.51 251.23 177.64
  Z" fill="#ffffff"></path>
<path d="M 127.33 255.42
  L 124.53 254.78
  A 2.55 2.54 -2.7 0 1 122.68 253.10
  L 122.48 252.49
  Q 121.78 250.37 124.01 250.36
  L 132.86 250.30
  A 1.04 1.02 68.8 0 1 133.63 250.65
  Q 135.04 252.27 134.86 254.98
  C 134.50 260.52 131.69 263.59 126.23 264.67
  C 120.17 265.87 113.37 263.63 110.81 257.58
  C 107.86 250.61 110.07 242.29 117.23 239.59
  Q 124.34 236.91 130.11 240.87
  C 132.03 242.18 131.47 245.18 129.59 246.38
  C 127.60 247.66 125.14 245.82 122.95 245.64
  C 116.48 245.12 113.75 252.41 118.90 256.56
  Q 123.50 260.27 127.59 256.36
  A 0.55 0.55 0.0 0 0 127.33 255.42
  Z" fill="#ffffff"></path>
<path d="M 167.81 246.30
  A 0.95 0.95 0.0 0 0 166.87 247.32
  L 166.97 248.76
  Q 167.04 249.74 168.01 249.74
  L 186.39 249.74
  A 2.83 2.83 0.0 0 1 189.21 252.39
  L 189.25 253.06
  Q 189.46 256.40 186.11 256.39
  Q 176.82 256.34 168.25 256.51
  Q 166.86 255.96 166.88 260.73
  Q 166.89 264.49 163.16 264.08
  L 162.39 264.00
  A 3.14 3.14 0.0 0 1 159.59 260.89
  L 159.48 243.26
  A 4.49 4.48 -0.1 0 1 163.99 238.75
  L 192.01 238.88
  Q 195.13 238.90 195.25 242.01
  L 195.28 242.92
  Q 195.39 245.98 192.33 246.02
  L 167.81 246.30
  Z" fill="#ffffff"></path>
<path d="M 217.74 246.61
  L 217.75 261.01
  Q 217.75 261.61 217.42 262.10
  Q 216.83 262.99 216.04 263.62
  C 213.87 265.37 211.07 262.99 211.07 260.75
  Q 211.06 253.81 211.07 246.94
  A 1.34 1.34 0.0 0 0 209.34 245.66
  C 202.36 247.77 201.35 238.76 206.48 238.74
  Q 214.46 238.72 222.84 238.77
  Q 226.09 238.79 226.32 242.02
  L 226.35 242.32
  A 3.20 3.20 0.0 0 1 223.28 245.75
  L 218.38 245.95
  A 0.67 0.66 -1.4 0 0 217.74 246.61
  Z" fill="#ffffff"></path>
<rect rx="3.46" height="25.18" width="7.42" transform="translate(148.87,251.62) rotate(0.2)" y="-12.59" x="-3.71" fill="#ffffff"></rect>
<rect rx="3.50" height="7.16" width="40.72" transform="translate(67.35,249.39) rotate(0.1)" y="-3.58" x="-20.36" fill="#ffffff"></rect>
<rect rx="3.35" height="7.20" width="38.36" transform="translate(258.43,249.35) rotate(0.1)" y="-3.60" x="-19.18" fill="#ffffff"></rect>
</svg>