<svg xmlns="http://www.w3.org/2000/svg" width="20" height="20" version="1.1" viewBox="0.00 0.00 512.00 512.00">
  <path fill="rgba(0, 0, 0, 0.5)" d="
    M 249.57 0.00
    L 255.26 0.00
    Q 259.12 0.37 262.98 0.65
    C 301.31 3.42 334.12 24.15 355.28 55.21
    C 382.22 94.75 382.47 150.42 356.05 190.27
    Q 345.40 206.32 330.05 219.04
    C 298.43 245.24 255.70 252.84 216.76 241.64
    C 186.18 232.85 159.00 209.72 143.60 181.94
    C 129.90 157.22 126.29 127.55 131.24 99.99
    C 137.08 67.44 156.27 39.98 183.22 21.26
    Q 209.59 2.95 241.77 0.65
    Q 245.67 0.37 249.57 0.00
    Z"
  />
  <path fill="rgba(0, 0, 0, 0.5)" d="
    M 381.98 512.00
    L 128.95 512.00
    C 108.89 511.62 88.67 505.60 72.96 493.12
    C 51.59 476.15 42.29 451.93 41.97 424.51
    Q 41.48 384.08 50.72 344.76
    C 55.66 323.70 64.52 301.98 77.66 284.64
    Q 99.22 256.17 134.54 249.38
    C 146.03 247.17 157.31 245.36 167.31 251.44
    Q 181.48 260.04 195.32 269.18
    C 202.86 274.17 212.87 277.66 222.08 280.76
    Q 251.98 290.79 282.09 283.03
    Q 286.54 281.89 293.28 279.45
    C 301.82 276.37 308.32 273.78 315.81 269.03
    Q 325.97 262.60 336.05 256.05
    C 342.14 252.09 348.79 247.91 355.91 247.37
    Q 362.73 246.85 375.23 249.03
    C 405.43 254.28 427.78 272.13 442.50 298.47
    Q 454.85 320.57 460.59 345.25
    Q 470.83 389.29 468.72 434.50
    Q 468.45 440.28 465.63 450.96
    C 455.15 490.65 421.00 510.64 381.98 512.00
    Z"
  />
</svg>
